<svg xmlns="http://www.w3.org/2000/svg" viewBox="0 0 390 660" width="390" height="660" fill="none" font-family="ui-monospace, 'SF Mono', Menlo, monospace">
  <defs>
    <radialGradient id="hGlow" cx="50%" cy="0%" r="75%">
      <stop offset="0%" stop-color="#22d3ee" stop-opacity="0.16"/>
      <stop offset="45%" stop-color="#3ef0a0" stop-opacity="0.06"/>
      <stop offset="100%" stop-color="#04050a" stop-opacity="0"/>
    </radialGradient>
    <linearGradient id="hIcon" x1="0" y1="0" x2="1" y2="1">
      <stop offset="0%" stop-color="#ff9d4d"/><stop offset="100%" stop-color="#ff6b3d"/>
    </linearGradient>
    <linearGradient id="hIcon2" x1="0" y1="0" x2="1" y2="1">
      <stop offset="0%" stop-color="#22d3ee"/><stop offset="100%" stop-color="#4f8cff"/>
    </linearGradient>
  </defs>

  <rect x="0" y="0" width="390" height="660" rx="44" fill="#05070e"/>
  <rect x="0" y="0" width="390" height="420" rx="44" fill="url(#hGlow)"/>

  <!-- status bar -->
  <text x="22" y="34" fill="#eaf3ff" font-size="15" font-weight="600">9:41</text>
  <rect x="156" y="20" width="78" height="22" rx="11" fill="#01030a"/>
  <g fill="#eaf3ff" opacity="0.92">
    <rect x="300" y="29" width="3" height="5" rx="1"/><rect x="305" y="26" width="3" height="8" rx="1"/>
    <rect x="310" y="23" width="3" height="11" rx="1"/><rect x="315" y="20" width="3" height="14" rx="1"/>
    <path d="M326 28 a7 7 0 0 1 11 0 M329 31 a3.4 3.4 0 0 1 5 0" stroke="#eaf3ff" stroke-width="1.7" fill="none"/>
    <rect x="346" y="22" width="21" height="11" rx="3" stroke="#eaf3ff" stroke-width="1.3" fill="none"/>
    <rect x="348" y="24" width="16" height="7" rx="1.5"/>
  </g>

  <!-- header -->
  <circle cx="44" cy="92" r="20" fill="#0e1726" stroke="#22d3ee" stroke-opacity="0.16"/>
  <g stroke="#9fb2d0" stroke-width="1.6" stroke-linecap="round">
    <circle cx="44" cy="92" r="4.2" fill="none"/>
    <path d="M44 84v-3M44 103v-3M52 92h3M33 92h3M49.7 86.3l2.1-2.1M36.2 99.8l2.1-2.1M49.7 97.7l2.1 2.1M36.2 84.2l2.1 2.1"/>
  </g>
  <circle cx="346" cy="92" r="20" fill="#0e1726" stroke="#22d3ee" stroke-opacity="0.16"/>
  <g stroke="#9fb2d0" stroke-width="1.6" stroke-linecap="round" stroke-linejoin="round" fill="none">
    <rect x="338" y="86" width="16" height="12" rx="2"/><path d="M337 89h18M343 92.5h6"/>
  </g>
  <g transform="translate(150,84)">
    <rect x="0" y="0" width="22" height="22" rx="6" fill="#0e1726" stroke="#22d3ee" stroke-opacity="0.4"/>
    <circle cx="7.5" cy="9" r="1.4" fill="#22d3ee"/><circle cx="14.5" cy="9" r="1.4" fill="#22d3ee"/>
    <path d="M7.5 15 q3.5 3 7 0" stroke="#22d3ee" stroke-width="1.5" fill="none" stroke-linecap="round"/>
  </g>
  <text x="180" y="99" fill="#eaf3ff" font-size="20" font-weight="700"><tspan fill="#3ef0a0">&gt;</tspan>conduit</text>

  <!-- server card -->
  <rect x="20" y="132" width="350" height="66" rx="14" fill="#0b1322" stroke="#22d3ee" stroke-opacity="0.16"/>
  <g transform="translate(36,150)">
    <rect x="0" y="0" width="22" height="9" rx="2.5" fill="none" stroke="#3ef0a0" stroke-width="1.6"/>
    <rect x="0" y="13" width="22" height="9" rx="2.5" fill="none" stroke="#3ef0a0" stroke-width="1.6"/>
    <circle cx="5" cy="4.5" r="1.3" fill="#3ef0a0"/><circle cx="5" cy="17.5" r="1.3" fill="#3ef0a0"/>
  </g>
  <text x="74" y="160" fill="#eaf3ff" font-size="16" font-weight="700">mac-studio</text>
  <text x="74" y="180" fill="#7d92b4" font-size="12.5">broker :1977 · LAN</text>
  <circle cx="258" cy="158" r="4" fill="#3ef0a0"/>
  <text x="272" y="162" fill="#3ef0a0" font-size="13" font-weight="600">connected</text>
  <text x="272" y="180" fill="#7d92b4" font-size="12">8 ms</text>

  <!-- active sessions header -->
  <text x="20" y="234" fill="#22d3ee" font-size="12" font-weight="700" letter-spacing="2">ACTIVE SESSIONS</text>
  <g transform="translate(258,224)">
    <path d="M0 6h14M7 -1v14" stroke="#3ef0a0" stroke-width="1.8" stroke-linecap="round"/>
    <text x="22" y="10" fill="#3ef0a0" font-size="13.5" font-weight="600">New session</text>
  </g>

  <!-- session card 1 -->
  <rect x="20" y="252" width="350" height="78" rx="14" fill="#0b1322" stroke="#22d3ee" stroke-opacity="0.13"/>
  <rect x="36" y="270" width="42" height="42" rx="11" fill="url(#hIcon)"/>
  <g fill="#1a0f08"><circle cx="50" cy="288" r="2"/><circle cx="64" cy="288" r="2"/><path d="M50 297 q7 5 14 0" stroke="#1a0f08" stroke-width="2.2" fill="none" stroke-linecap="round"/></g>
  <text x="92" y="284" fill="#eaf3ff" font-size="16" font-weight="600">Fix auth refresh loop</text>
  <text x="92" y="305" font-size="12.5"><tspan fill="#ff9d4d">claude</tspan><tspan dx="9" fill="#7d92b4">envoy · fix/auth</tspan></text>
  <circle cx="300" cy="278" r="3.6" fill="#3ef0a0"/>
  <text x="356" y="282" fill="#7d92b4" font-size="11.5" text-anchor="end">now</text>

  <!-- session card 2 -->
  <rect x="20" y="342" width="350" height="78" rx="14" fill="#0b1322" stroke="#22d3ee" stroke-opacity="0.13"/>
  <rect x="36" y="360" width="42" height="42" rx="11" fill="url(#hIcon2)"/>
  <g fill="#03121a"><circle cx="50" cy="378" r="2"/><circle cx="64" cy="378" r="2"/><path d="M50 386 q7 4 14 0" stroke="#03121a" stroke-width="2.2" fill="none" stroke-linecap="round"/></g>
  <text x="92" y="374" fill="#eaf3ff" font-size="16" font-weight="600">Add usage dashboard</text>
  <text x="92" y="395" font-size="12.5"><tspan fill="#22d3ee">codex</tspan><tspan dx="9" fill="#7d92b4">web · feat/usage</tspan></text>
  <circle cx="300" cy="368" r="3.6" fill="#ffb627"/>
  <text x="356" y="372" fill="#7d92b4" font-size="11.5" text-anchor="end">2m</text>

  <!-- session card 3 -->
  <rect x="20" y="432" width="350" height="78" rx="14" fill="#0b1322" stroke="#22d3ee" stroke-opacity="0.11"/>
  <rect x="36" y="450" width="42" height="42" rx="11" fill="url(#hIcon)"/>
  <g fill="#1a0f08"><circle cx="50" cy="468" r="2"/><circle cx="64" cy="468" r="2"/><path d="M50 477 q7 5 14 0" stroke="#1a0f08" stroke-width="2.2" fill="none" stroke-linecap="round"/></g>
  <text x="92" y="464" fill="#eaf3ff" font-size="16" font-weight="600">Wire reconnect banner</text>
  <text x="92" y="485" font-size="12.5"><tspan fill="#ff9d4d">claude</tspan><tspan dx="9" fill="#7d92b4">core · reconnect</tspan></text>
  <circle cx="300" cy="458" r="3.6" fill="#3ef0a0"/>
  <text x="356" y="462" fill="#7d92b4" font-size="11.5" text-anchor="end">5m</text>

  <!-- session card 4 (fades into the page mask) -->
  <rect x="20" y="522" width="350" height="78" rx="14" fill="#0b1322" stroke="#22d3ee" stroke-opacity="0.10"/>
  <rect x="36" y="540" width="42" height="42" rx="11" fill="#16233a"/>
  <g fill="#7d92b4"><circle cx="50" cy="558" r="2"/><circle cx="64" cy="558" r="2"/><path d="M50 566 q7 4 14 0" stroke="#7d92b4" stroke-width="2.2" fill="none" stroke-linecap="round"/></g>
  <text x="92" y="554" fill="#c4d6f4" font-size="16" font-weight="600">Refactor broker recovery</text>
  <text x="92" y="575" fill="#7d92b4" font-size="12.5">codex · broker · main</text>
  <circle cx="300" cy="548" r="3.6" fill="#7d92b4"/>
  <text x="356" y="552" fill="#7d92b4" font-size="11.5" text-anchor="end">1h</text>
</svg>
