<svg xmlns="http://www.w3.org/2000/svg" viewBox="0 0 1194 800" width="1194" height="800" fill="none" font-family="ui-monospace, 'SF Mono', Menlo, monospace">
  <defs>
    <radialGradient id="tabGlow" cx="50%" cy="0%" r="70%">
      <stop offset="0%" stop-color="#22d3ee" stop-opacity="0.14"/>
      <stop offset="45%" stop-color="#3ef0a0" stop-opacity="0.05"/>
      <stop offset="100%" stop-color="#04050a" stop-opacity="0"/>
    </radialGradient>
    <linearGradient id="tabIcon" x1="0" y1="0" x2="1" y2="1"><stop offset="0%" stop-color="#ff9d4d"/><stop offset="100%" stop-color="#ff6b3d"/></linearGradient>
    <linearGradient id="tabIcon2" x1="0" y1="0" x2="1" y2="1"><stop offset="0%" stop-color="#22d3ee"/><stop offset="100%" stop-color="#4f8cff"/></linearGradient>
  </defs>

  <!-- screen -->
  <rect x="0" y="0" width="1194" height="800" rx="30" fill="#05070e"/>
  <rect x="0" y="0" width="1194" height="420" rx="30" fill="url(#tabGlow)"/>

  <!-- status bar -->
  <text x="26" y="34" fill="#eaf3ff" font-size="14" font-weight="600">9:41</text>
  <text x="60" y="34" fill="#7d92b4" font-size="13">Mon 3 Jun</text>
  <g fill="#eaf3ff" opacity="0.92">
    <rect x="1108" y="28" width="3" height="5" rx="1"/><rect x="1113" y="25" width="3" height="8" rx="1"/>
    <rect x="1118" y="22" width="3" height="11" rx="1"/><rect x="1123" y="19" width="3" height="14" rx="1"/>
    <path d="M1134 27 a7 7 0 0 1 11 0 M1137 30 a3.4 3.4 0 0 1 5 0" stroke="#eaf3ff" stroke-width="1.7" fill="none"/>
    <rect x="1152" y="21" width="21" height="11" rx="3" stroke="#eaf3ff" stroke-width="1.3" fill="none"/><rect x="1154" y="23" width="16" height="7" rx="1.5"/>
  </g>

  <!-- ===== LEFT RAIL ===== -->
  <rect x="16" y="52" width="296" height="732" rx="20" fill="#0a1120" stroke="#22d3ee" stroke-opacity="0.12"/>
  <g transform="translate(36,80)">
    <rect x="0" y="0" width="22" height="22" rx="6" fill="#0e1726" stroke="#22d3ee" stroke-opacity="0.4"/>
    <circle cx="7.5" cy="9" r="1.4" fill="#22d3ee"/><circle cx="14.5" cy="9" r="1.4" fill="#22d3ee"/>
    <path d="M7.5 15 q3.5 3 7 0" stroke="#22d3ee" stroke-width="1.5" fill="none" stroke-linecap="round"/>
  </g>
  <text x="68" y="98" fill="#eaf3ff" font-size="19" font-weight="700"><tspan fill="#3ef0a0">&gt;</tspan>conduit</text>
  <!-- search -->
  <rect x="36" y="118" width="256" height="36" rx="11" fill="#0b1322" stroke="#22d3ee" stroke-opacity="0.14"/>
  <circle cx="56" cy="136" r="6" fill="none" stroke="#7d92b4" stroke-width="1.6"/><path d="M60 140l4 4" stroke="#7d92b4" stroke-width="1.6" stroke-linecap="round"/>
  <text x="74" y="141" fill="#6b7e9e" font-size="13">Search sessions…</text>
  <text x="270" y="141" fill="#6b7e9e" font-size="12" text-anchor="end">⌘K</text>

  <text x="36" y="186" fill="#22d3ee" font-size="11" font-weight="700" letter-spacing="1.5">ACTIVE</text>
  <!-- active row 1 (selected) -->
  <rect x="28" y="196" width="272" height="52" rx="12" fill="#11211a" stroke="#3ef0a0" stroke-opacity="0.35"/>
  <rect x="40" y="208" width="28" height="28" rx="8" fill="url(#tabIcon)"/>
  <text x="80" y="220" fill="#eaf3ff" font-size="13.5" font-weight="600">Fix auth refresh loop</text>
  <text x="80" y="237" fill="#7d92b4" font-size="11.5">claude · running</text>
  <circle cx="286" cy="214" r="3.4" fill="#3ef0a0"/>
  <!-- active row 2 -->
  <rect x="40" y="262" width="28" height="28" rx="8" fill="url(#tabIcon2)"/>
  <text x="80" y="274" fill="#c4d6f4" font-size="13.5" font-weight="500">Add usage dashboard</text>
  <text x="80" y="291" fill="#7d92b4" font-size="11.5">codex · idle</text>
  <circle cx="286" cy="268" r="3.4" fill="#ffb627"/>
  <!-- active row 3 -->
  <rect x="40" y="312" width="28" height="28" rx="8" fill="#16233a"/>
  <text x="80" y="324" fill="#c4d6f4" font-size="13.5" font-weight="500">Wire reconnect banner</text>
  <text x="80" y="341" fill="#7d92b4" font-size="11.5">claude · running</text>
  <circle cx="286" cy="318" r="3.4" fill="#3ef0a0"/>

  <text x="36" y="384" fill="#7d92b4" font-size="11" font-weight="700" letter-spacing="1.5">RECENT</text>
  <text x="80" y="416" fill="#9fb2d0" font-size="13">Refactor broker recovery</text><text x="290" y="416" fill="#6b7e9e" font-size="11" text-anchor="end">1h</text>
  <text x="80" y="448" fill="#9fb2d0" font-size="13">Privacy policy page</text><text x="290" y="448" fill="#6b7e9e" font-size="11" text-anchor="end">3h</text>
  <text x="80" y="480" fill="#9fb2d0" font-size="13">TestFlight automation</text><text x="290" y="480" fill="#6b7e9e" font-size="11" text-anchor="end">1d</text>
  <circle cx="50" cy="412" r="3" fill="#7d92b4"/><circle cx="50" cy="444" r="3" fill="#7d92b4"/><circle cx="50" cy="476" r="3" fill="#7d92b4"/>

  <!-- new session button -->
  <rect x="36" y="730" width="256" height="40" rx="12" fill="#0e2c1c" stroke="#3ef0a0" stroke-opacity="0.4"/>
  <path d="M150 750h14M157 743v14" stroke="#3ef0a0" stroke-width="2" stroke-linecap="round"/>
  <text x="174" y="755" fill="#3ef0a0" font-size="13.5" font-weight="600">New session</text>

  <!-- ===== CENTER: CHAT ===== -->
  <rect x="328" y="52" width="500" height="732" rx="20" fill="#070d18" stroke="#22d3ee" stroke-opacity="0.10"/>
  <!-- header -->
  <rect x="328" y="52" width="500" height="58" rx="20" fill="#0a1120"/>
  <rect x="328" y="92" width="500" height="18" fill="#070d18"/>
  <rect x="348" y="68" width="30" height="30" rx="9" fill="url(#tabIcon)"/>
  <g fill="#1a0f08"><circle cx="358" cy="80" r="1.7"/><circle cx="368" cy="80" r="1.7"/><path d="M358 87 q5 3 10 0" stroke="#1a0f08" stroke-width="2" fill="none" stroke-linecap="round"/></g>
  <text x="390" y="80" fill="#eaf3ff" font-size="15" font-weight="600">Fix auth refresh loop</text>
  <text x="390" y="98" fill="#7d92b4" font-size="11.5">claude · envoy · fix/auth</text>
  <rect x="730" y="72" width="80" height="24" rx="12" fill="#11211a" stroke="#3ef0a0" stroke-opacity="0.3"/>
  <circle cx="748" cy="84" r="3.4" fill="#3ef0a0"/><text x="760" y="88" fill="#3ef0a0" font-size="11" font-weight="600">running</text>

  <!-- user bubble -->
  <rect x="470" y="130" width="338" height="40" rx="14" fill="#13251c" stroke="#3ef0a0" stroke-opacity="0.28"/>
  <text x="488" y="155" fill="#eaf3ff" font-size="13">the token refresh is looping — find &amp; fix it.</text>
  <!-- assistant -->
  <text x="348" y="196" fill="#ff9d4d" font-size="11" font-weight="700" letter-spacing="1">CLAUDE</text>
  <text x="348" y="218" fill="#c4d6f4" font-size="13">The refresh fires before the old token's expiry is</text>
  <text x="348" y="236" fill="#c4d6f4" font-size="13">checked, so it re-enters every call. Tightening the guard:</text>
  <!-- diff card -->
  <rect x="348" y="252" width="460" height="124" rx="12" fill="#0a1322" stroke="#22d3ee" stroke-opacity="0.14"/>
  <text x="364" y="274" fill="#7d92b4" font-size="11.5">auth/refresh.go</text><text x="792" y="274" fill="#3ef0a0" font-size="11" text-anchor="end">+6 −2</text>
  <line x1="364" y1="284" x2="792" y2="284" stroke="#22d3ee" stroke-opacity="0.08"/>
  <g font-size="12.5">
    <rect x="356" y="290" width="444" height="17" fill="#3a120f" opacity="0.5"/><text x="366" y="303"><tspan fill="#ff7a6b">-</tspan><tspan fill="#c4d6f4"> if now &gt; token.exp {</tspan></text>
    <rect x="356" y="309" width="444" height="17" fill="#0e2c1c" opacity="0.6"/><text x="366" y="322"><tspan fill="#3ef0a0">+</tspan><tspan fill="#c4d6f4"> if now &gt;= token.exp-skew {</tspan></text>
    <rect x="356" y="328" width="444" height="17" fill="#0e2c1c" opacity="0.6"/><text x="366" y="341"><tspan fill="#3ef0a0">+</tspan><tspan fill="#c4d6f4">   refresh.Do(once)  // de-dupe</tspan></text>
    <text x="366" y="362" fill="#7d92b4">   return cached, nil</text>
  </g>
  <!-- approval -->
  <rect x="348" y="392" width="460" height="72" rx="12" fill="#16120a" stroke="#ffb627" stroke-opacity="0.32"/>
  <g transform="translate(366,408)"><path d="M8 0l8 14H0z" fill="none" stroke="#ffb627" stroke-width="1.6" stroke-linejoin="round"/><path d="M8 5v4" stroke="#ffb627" stroke-width="1.6" stroke-linecap="round"/><circle cx="8" cy="11.5" r="0.9" fill="#ffb627"/></g>
  <text x="392" y="418" fill="#eaf3ff" font-size="13" font-weight="600">Run tests + commit to fix/auth?</text>
  <rect x="392" y="430" width="92" height="24" rx="7" fill="#3ef0a0"/><text x="438" y="446" fill="#04140d" font-size="12" font-weight="700" text-anchor="middle">Approve</text>
  <rect x="492" y="430" width="74" height="24" rx="7" fill="none" stroke="#7d92b4" stroke-opacity="0.5"/><text x="529" y="446" fill="#c4d6f4" font-size="12" text-anchor="middle">Deny</text>
  <!-- chips + composer -->
  <g font-size="11.5">
    <rect x="348" y="700" width="110" height="24" rx="12" fill="#0e1a2e" stroke="#3ef0a0" stroke-opacity="0.3"/><text x="403" y="716" fill="#3ef0a0" text-anchor="middle">run the tests</text>
    <rect x="466" y="700" width="104" height="24" rx="12" fill="#0e1a2e" stroke="#22d3ee" stroke-opacity="0.3"/><text x="518" y="716" fill="#22d3ee" text-anchor="middle">show diff</text>
    <rect x="578" y="700" width="80" height="24" rx="12" fill="#0e1a2e" stroke="#7d92b4" stroke-opacity="0.3"/><text x="618" y="716" fill="#c4d6f4" text-anchor="middle">open PR</text>
  </g>
  <rect x="348" y="732" width="460" height="40" rx="14" fill="#0b1322" stroke="#22d3ee" stroke-opacity="0.18"/>
  <text x="366" y="757" fill="#6b7e9e" font-size="13">Message claude…</text>
  <circle cx="788" cy="752" r="14" fill="#3ef0a0"/><path d="M783 752h9M788 747l5 5-5 5" stroke="#04140d" stroke-width="2" fill="none" stroke-linecap="round" stroke-linejoin="round"/>

  <!-- ===== RIGHT PANE: TERMINAL ===== -->
  <rect x="844" y="52" width="334" height="732" rx="20" fill="#070d18" stroke="#22d3ee" stroke-opacity="0.10"/>
  <!-- tab strip -->
  <g font-size="12" font-weight="600" text-anchor="middle">
    <rect x="860" y="70" width="100" height="30" rx="9" fill="#11202e" stroke="#22d3ee" stroke-opacity="0.3"/><text x="910" y="89" fill="#22d3ee">Terminal</text>
    <text x="1010" y="89" fill="#7d92b4">Browser</text>
    <text x="1110" y="89" fill="#7d92b4">Usage</text>
  </g>
  <line x1="844" y1="116" x2="1178" y2="116" stroke="#22d3ee" stroke-opacity="0.08"/>
  <!-- terminal body -->
  <g font-size="12.5">
    <text x="864" y="146"><tspan fill="#3ef0a0">~/envoy</tspan><tspan fill="#22d3ee"> $</tspan><tspan fill="#eaf3ff"> go test ./...</tspan></text>
    <text x="864" y="170" fill="#c4d6f4">ok  auth   0.42s  <tspan fill="#3ef0a0">PASS</tspan></text>
    <text x="864" y="194" fill="#c4d6f4">ok  broker 1.10s  <tspan fill="#3ef0a0">PASS</tspan></text>
    <text x="864" y="222"><tspan fill="#22d3ee">$</tspan><tspan fill="#eaf3ff"> git commit -am "fix refresh"</tspan></text>
    <text x="864" y="246" fill="#7d92b4">[fix/auth 9c1a2e7] fix refresh</text>
    <text x="864" y="270" fill="#7d92b4"> 2 files changed, 6 (+) 2 (-)</text>
    <text x="864" y="298"><tspan fill="#22d3ee">$</tspan><tspan fill="#eaf3ff"> gh pr create --fill</tspan></text>
    <text x="864" y="322" fill="#4f8cff">https://github.com/…/pull/342</text>
    <text x="864" y="350"><tspan fill="#22d3ee">$ </tspan><tspan fill="#eaf3ff">▊</tspan></text>
  </g>
  <!-- usage mini card pinned bottom -->
  <rect x="860" y="556" width="302" height="200" rx="14" fill="#0a1322" stroke="#22d3ee" stroke-opacity="0.12"/>
  <text x="878" y="584" fill="#eaf3ff" font-size="13" font-weight="700">Account usage</text>
  <text x="878" y="616" fill="#7d92b4" font-size="11.5">5-hour</text>
  <rect x="878" y="624" width="266" height="8" rx="4" fill="#16233a"/><rect x="878" y="624" width="180" height="8" rx="4" fill="#3ef0a0"/>
  <text x="1144" y="616" fill="#3ef0a0" font-size="11.5" text-anchor="end">68%</text>
  <text x="878" y="664" fill="#7d92b4" font-size="11.5">Weekly</text>
  <rect x="878" y="672" width="266" height="8" rx="4" fill="#16233a"/><rect x="878" y="672" width="109" height="8" rx="4" fill="#22d3ee"/>
  <text x="1144" y="664" fill="#22d3ee" font-size="11.5" text-anchor="end">41%</text>
  <text x="878" y="712" fill="#7d92b4" font-size="11.5">Context window</text>
  <rect x="878" y="720" width="266" height="8" rx="4" fill="#16233a"/><rect x="878" y="720" width="208" height="8" rx="4" fill="#4f8cff"/>
  <text x="1144" y="712" fill="#4f8cff" font-size="11.5" text-anchor="end">78%</text>
</svg>
